<?xml version="1.0" standalone="no"?>
<!DOCTYPE svg PUBLIC "-//W3C//DTD SVG 20010904//EN"
 "http://www.w3.org/TR/2001/REC-SVG-20010904/DTD/svg10.dtd">
<svg version="1.0" xmlns="http://www.w3.org/2000/svg"
 width="784.000000pt" height="784.000000pt" viewBox="0 0 784.000000 784.000000"
 preserveAspectRatio="xMidYMid meet">
<metadata>
Created by potrace 1.14, written by Peter Selinger 2001-2017
</metadata>
<g transform="translate(0.000000,784.000000) scale(0.100000,-0.100000)"
fill="#000000" stroke="none">
<path d="M2048 6504 c-47 -7 -113 -20 -145 -29 -32 -9 -69 -18 -82 -21 -41 -9
-213 -80 -285 -118 -95 -50 -227 -137 -311 -204 -107 -85 -303 -285 -395 -402
-45 -58 -88 -113 -96 -123 -8 -9 -14 -19 -14 -22 0 -2 -19 -33 -42 -67 -100
-151 -129 -203 -228 -403 -127 -259 -224 -527 -302 -830 -16 -66 -32 -129 -34
-140 -2 -11 -6 -31 -9 -45 -3 -14 -10 -45 -15 -70 -4 -25 -10 -54 -13 -65 -2
-11 -8 -42 -11 -68 -4 -27 -10 -59 -12 -70 -2 -12 -6 -40 -8 -62 -3 -22 -7
-56 -10 -75 -6 -36 -9 -64 -23 -225 -15 -172 -8 -625 11 -735 3 -14 7 -46 11
-72 10 -84 64 -317 84 -363 5 -11 23 -58 41 -105 119 -314 344 -578 605 -713
73 -38 165 -77 165 -70 0 3 6 1 13 -4 10 -9 31 -16 82 -29 6 -1 22 -4 37 -7
15 -3 31 -8 35 -10 5 -3 31 -7 58 -11 28 -3 70 -9 95 -14 25 -5 117 -7 205 -6
149 2 192 5 255 19 14 4 38 9 54 11 92 17 315 115 401 176 109 79 183 143 290
252 72 73 137 141 145 152 8 10 42 51 74 91 92 114 179 235 293 408 58 88 114
172 124 187 10 15 19 30 19 34 0 4 11 22 25 40 14 18 25 35 25 39 0 3 11 22
24 43 24 38 271 466 322 557 15 28 36 66 47 85 10 19 23 40 27 45 4 6 25 42
46 80 20 39 46 84 55 100 10 17 25 44 34 60 9 17 21 39 28 50 6 11 50 87 96
168 46 81 84 147 86 145 19 -25 205 -342 205 -349 0 -5 5 -9 10 -9 6 0 10 -5
10 -11 0 -6 15 -34 33 -62 29 -44 161 -264 192 -319 87 -154 518 -856 534
-868 3 -3 11 -13 16 -22 21 -36 125 -186 166 -240 24 -31 51 -66 59 -78 14
-20 36 -49 60 -77 5 -7 37 -45 71 -85 102 -122 256 -277 339 -339 117 -87 272
-179 303 -179 10 0 17 -4 17 -9 0 -5 10 -11 23 -14 12 -3 60 -16 107 -30 47
-14 104 -28 127 -32 23 -3 57 -8 75 -11 57 -9 321 -12 378 -4 127 18 148 22
215 42 151 44 286 112 400 201 54 43 205 196 205 208 0 4 6 14 14 22 36 35
196 327 179 327 -3 0 -1 6 5 13 9 11 69 179 77 217 1 8 8 35 15 60 14 53 18
72 26 120 3 19 7 42 9 50 8 26 19 112 32 235 15 138 7 658 -12 815 -2 19 -7
60 -10 90 -7 65 -14 118 -19 145 -2 11 -7 40 -11 65 -10 68 -14 93 -20 120 -3
14 -8 41 -11 60 -11 57 -12 61 -37 165 -14 55 -35 136 -47 180 -12 44 -23 85
-25 90 -1 6 -5 17 -8 25 -4 8 -18 51 -32 95 -15 44 -30 89 -35 100 -5 11 -23
56 -40 100 -91 235 -284 595 -403 750 -4 6 -31 42 -60 80 -28 39 -56 75 -62
81 -5 6 -34 39 -64 73 -70 81 -142 153 -222 222 -73 64 -227 179 -249 187 -8
3 -22 11 -30 18 -51 42 -346 168 -443 188 -12 3 -33 7 -47 11 -101 22 -174 29
-305 30 -135 0 -173 -3 -255 -20 -14 -3 -36 -7 -49 -10 -36 -7 -121 -35 -158
-51 -17 -8 -34 -14 -37 -14 -17 0 -218 -107 -285 -152 -246 -164 -463 -379
-749 -743 -6 -8 -60 -81 -69 -94 -4 -5 -27 19 -59 61 -23 30 -97 117 -159 188
-72 82 -319 325 -395 388 -92 77 -246 187 -314 224 -170 94 -370 171 -506 194
-14 3 -50 9 -80 15 -85 17 -372 19 -472 3z m3681 -719 c230 -32 443 -147 631
-341 49 -51 90 -97 90 -102 0 -5 9 -17 20 -27 22 -20 123 -174 161 -245 13
-25 26 -47 29 -50 9 -8 87 -174 138 -292 12 -27 18 -48 15 -48 -3 0 -1 -6 4
-12 23 -30 124 -354 149 -478 3 -14 11 -50 19 -80 13 -51 37 -180 49 -260 3
-19 8 -46 10 -59 3 -13 8 -52 11 -88 2 -35 7 -67 9 -71 4 -6 12 -113 22 -262
6 -92 5 -402 -1 -455 -5 -43 -9 -82 -20 -155 -1 -8 -5 -28 -8 -45 -4 -16 -9
-39 -11 -50 -9 -42 -39 -123 -74 -194 -33 -68 -103 -151 -172 -206 -37 -29
-148 -73 -205 -81 -51 -7 -198 -8 -225 -1 -65 16 -108 32 -141 53 -21 13 -41
24 -43 24 -11 0 -144 127 -205 195 -15 17 -76 94 -104 130 -54 72 -96 132
-193 278 -63 95 -118 177 -122 182 -4 6 -19 28 -32 50 -13 22 -28 42 -32 43
-4 2 -8 7 -8 12 0 8 -171 285 -190 307 -5 7 -10 14 -10 17 0 2 -45 77 -100
166 -55 89 -100 164 -100 167 0 2 -13 24 -30 48 -16 24 -30 48 -30 54 0 6 -4
11 -8 11 -4 0 -13 12 -19 28 -10 21 -180 306 -223 372 -5 8 -24 40 -42 70 -17
30 -34 57 -37 60 -4 3 -24 34 -46 70 -21 36 -85 136 -142 223 -74 114 -100
161 -93 170 6 7 28 39 49 72 42 66 211 291 257 343 183 207 359 342 529 407
28 11 52 20 55 20 3 1 16 5 30 10 79 26 273 37 389 20z m-3324 -129 c156 -24
344 -116 486 -236 149 -127 340 -338 489 -541 30 -41 57 -76 60 -79 3 -3 23
-30 44 -62 l38 -56 -20 -29 c-19 -27 -104 -159 -127 -195 -5 -9 -73 -113 -149
-230 -76 -117 -152 -233 -168 -258 -15 -25 -33 -52 -38 -60 -51 -77 -121 -188
-127 -200 -4 -8 -25 -42 -48 -75 -22 -33 -54 -82 -70 -110 -16 -27 -32 -54
-37 -60 -4 -5 -102 -152 -218 -325 -204 -305 -251 -374 -268 -395 -4 -5 -28
-37 -52 -70 -25 -33 -47 -62 -50 -65 -3 -3 -28 -32 -55 -65 -46 -55 -144 -155
-212 -215 -61 -54 -179 -118 -248 -134 -82 -20 -231 -25 -305 -11 -87 17 -196
79 -259 148 -86 95 -131 185 -177 352 -11 41 -21 94 -33 177 -9 59 -6 463 3
553 3 22 7 65 10 95 4 30 8 71 11 90 3 19 7 55 10 80 3 25 7 52 10 60 2 8 6
33 10 55 5 35 38 198 51 250 3 11 7 29 9 40 3 11 16 61 30 110 14 50 28 97 30
105 18 68 102 288 146 385 13 28 24 52 24 55 1 7 80 156 116 220 78 140 209
312 313 414 72 70 207 176 225 176 5 0 16 6 23 13 29 28 178 83 253 93 28 3
51 7 53 9 5 5 173 -2 217 -9z"/>
</g>
</svg>
