<svg width="98" height="65" viewBox="0 0 98 65" fill="none" xmlns="http://www.w3.org/2000/svg">
<path fill-rule="evenodd" clip-rule="evenodd" d="M12.4329 7.49606C16.8159 2.91181 22.2408 0 28.2384 0L28.2569 7.23647e-06L28.2694 3.00658e-06V2.03296e-05C32.9115 0.00611358 37.5245 1.3828 42.3432 5.31089C44.8904 7.38644 47.5189 10.1092 50.3457 13.6824C50.5548 13.3897 50.7644 13.0969 50.9944 12.8041C50.9951 12.8051 50.9959 12.806 50.9966 12.8069C50.9974 12.806 50.9982 12.805 50.9989 12.804C51.1724 12.5611 51.3601 12.3182 51.5389 12.0867L51.539 12.0866L51.6593 11.9306L51.6595 11.9308L51.6603 11.9298C53.5776 9.47993 55.6014 7.20049 57.7743 5.3258C61.7154 1.89599 65.9548 3.00658e-06 70.2367 3.00658e-06C77.4159 3.00658e-06 84.2542 4.15413 89.4948 11.9511C94.8419 19.9185 97.6326 29.8458 97.9522 40.1779C97.9735 40.5187 97.9735 40.8809 97.9735 41.243C97.9948 41.6052 97.9948 41.946 97.9948 42.3082L97.9887 42.3128L98 42.3124C98 48.9058 96.6984 53.7501 94.4828 57.5762C92.344 61.2766 88.1728 64.9748 81.1555 64.9748C76.7926 64.9748 72.9282 64.0289 68.6548 60.0047C65.3699 56.9158 61.5289 51.4281 58.5741 46.4964L49.7844 31.8419C49.533 31.4227 49.2828 31.0095 49.0341 30.6026C48.94 30.7799 48.8409 30.9572 48.7419 31.1345L48.7418 31.1346C48.6406 31.3157 48.5394 31.4968 48.4435 31.6779C48.3796 31.7631 48.3157 31.8696 48.2731 31.9548L47.8257 32.743L45.1841 37.4084C38.9849 48.3796 37.4084 50.8934 34.3195 55.0049C28.8872 62.2267 24.2431 64.9748 18.129 64.9748C10.8859 64.9748 6.28445 61.8432 3.45112 57.1139C1.60938 54.0725 0.518128 50.2672 0.145488 45.9531C0.0488474 44.8722 0 43.756 0 42.6064L4.06976e-05 42.5384L0 42.4786L0.000143594 42.4786C0.0235532 32.0567 2.90882 21.0751 8.3466 12.6882C9.57333 10.7974 10.9423 9.05057 12.4329 7.49606ZM27.6529 10.67C23.7164 10.9224 20.2441 13.7596 17.4154 18.0332C13.2208 24.3645 10.6516 33.7933 10.6516 42.8493V42.9153C10.6516 43.5329 10.6516 44.125 10.6565 44.691C10.8737 47.5373 11.5837 49.7445 12.4837 51.1916C13.8897 53.4497 15.9561 54.3232 18.1077 54.3232C20.8558 54.3232 23.4122 53.748 28.2694 47.0162C31.072 43.1415 34.2379 38.1549 36.944 33.8925C38.0022 32.2259 38.99 30.6699 39.8583 29.3345L42.7761 24.8833L42.7759 24.883L43.3915 23.9065C43.3907 23.9053 43.3899 23.9042 43.3892 23.9031L44.0282 22.9444C44.029 22.9455 44.0298 22.9466 44.0305 22.9477L44.0307 22.9475C41.9963 20.0553 40.2461 17.8543 38.988 16.5206C36.4699 13.8492 33.3597 10.6537 28.1936 10.6537C28.0124 10.6537 27.8322 10.6592 27.6529 10.67ZM60.2784 28.378C58.4813 25.3899 56.7753 22.7024 55.1431 20.2853C55.3526 19.9508 55.5621 19.6365 55.7716 19.3223L55.7718 19.322C55.7938 19.289 55.8144 19.2574 55.8343 19.2269C55.8915 19.1392 55.9429 19.0602 56.0061 18.9812C56.0867 18.8468 56.1758 18.721 56.2627 18.5983L56.2627 18.5982L56.2627 18.5982L56.2627 18.5982C56.3136 18.5263 56.3637 18.4555 56.4109 18.3847C60.842 11.9937 64.847 9.05387 69.768 9.05387C74.4547 9.05387 78.6515 11.4611 81.9322 16.51C86.1928 23.0927 88.3231 32.0826 88.6214 40.4761C88.6427 40.8383 88.6427 41.2004 88.6427 41.5413C88.6639 41.9026 88.664 42.264 88.664 42.6042L88.6628 42.6043C88.6628 48.9122 86.9649 54.3232 80.9574 54.3232C78.5885 54.3232 76.9631 53.4838 74.3598 50.3331C72.3339 47.879 68.8764 42.6788 62.7964 32.5683L60.2784 28.378Z" fill="white"/>
</svg>
