<svg width="90" height="90" viewBox="0 0 90 90" fill="none" xmlns="http://www.w3.org/2000/svg">
<path d="M88.1262 55.0499L84.0143 58.1681L79.9137 55.3124C79.9137 55.0124 79.9137 54.6937 79.895 54.3749C79.895 54.0749 79.895 53.7562 79.8762 53.4374C79.6137 46.0499 77.7387 38.1374 73.9887 32.3437C71.1012 27.8999 67.4075 25.7812 63.2825 25.7812C58.9512 25.7812 55.4262 28.3687 51.5262 33.9937C51.4137 34.1624 51.2825 34.3312 51.17 34.5187C51.095 34.6124 51.0387 34.7062 50.9637 34.8187C50.7762 35.0999 50.5887 35.3812 50.4012 35.6812C48.7137 38.3062 46.9512 41.3624 45.0387 44.7374C44.87 45.0562 44.6825 45.3749 44.5137 45.6937C44.4575 45.7687 44.4012 45.8624 44.3637 45.9374L43.97 46.6312L41.645 50.7374C36.1887 60.3937 34.8012 62.6062 32.0825 66.2249C27.3012 72.5812 23.2137 74.9999 17.8325 74.9999C11.4575 74.9999 7.40746 72.2437 4.91371 68.0812C2.86996 64.7062 1.87621 60.2624 1.87621 55.1999L11.195 55.5187C11.195 58.8187 11.9075 61.3312 12.8637 62.8687C14.1012 64.8562 15.92 65.6249 17.8137 65.6249C20.2325 65.6249 22.4825 65.1187 26.7575 59.1937C30.1887 54.4499 34.2387 47.8124 36.9575 43.6312L39.5262 39.7124L40.07 38.8499L40.6325 38.0062L41.57 36.5624C42.995 34.3874 44.5325 32.0812 46.1825 29.8687C46.37 29.6062 46.5575 29.3437 46.7637 29.0812C46.9512 28.8187 47.1575 28.5562 47.345 28.3124C49.0325 26.1562 50.8137 24.1499 52.7262 22.4999C56.195 19.4812 59.9262 17.8124 63.695 17.8124C70.0137 17.8124 76.0325 21.4687 80.645 28.3312C85.3512 35.3437 87.8075 44.0812 88.0887 53.1749C88.1075 53.4749 88.1075 53.7937 88.1075 54.1124C88.1262 54.4312 88.1262 54.7312 88.1262 55.0499Z" fill="white"/>
<path d="M9.22806 28.9799C13.4974 22.4081 19.6624 17.8124 26.7312 17.8124C30.8262 17.8124 34.8949 19.0218 39.1456 22.4868C43.7937 26.2743 48.7493 32.5106 54.9312 42.7893L57.1474 46.4774C62.4987 55.3762 65.5418 59.9531 67.3249 62.1131C69.6162 64.8862 71.0468 65.6249 73.1318 65.6249C78.4193 65.6249 79.9137 60.8624 79.9137 55.3106L88.1318 55.0537C88.1318 60.8568 86.9862 65.1206 85.0362 68.4881C83.1537 71.7449 79.4824 74.9999 73.3062 74.9999C69.4662 74.9999 66.0649 74.1674 62.3037 70.6256C59.4124 67.9068 56.0318 63.0768 53.4312 58.7362L45.6949 45.8381C41.8137 39.3656 38.2531 34.5374 36.1924 32.3531C33.9762 30.0018 31.2387 27.1893 26.6918 27.1893C23.0112 27.1893 19.7749 29.7431 17.1593 33.6862L9.22806 28.9799Z" fill="url(#paint0_linear_9_721)"/>
<path d="M26.72 27.1874C23.0468 27.1874 19.8143 29.7412 17.2043 33.6843C13.5125 39.2568 11.2512 47.5556 11.2512 55.5262C11.2512 58.8131 11.2456 61.2862 12.1887 62.8124L4.98871 68.0868C2.95246 64.7006 1.87621 60.3749 1.87621 55.3124C1.87621 46.1062 4.41684 36.3918 9.22246 28.9799C13.4862 22.4081 19.7018 17.8124 26.7575 17.8124L26.72 27.1874Z" fill="url(#paint1_linear_9_721)"/>
<path opacity="0.05" d="M40.627 38.0064L40.0645 38.8501L39.5207 39.7126C40.852 41.6439 42.3707 43.9689 43.9645 46.6314L44.3582 45.9376C44.3957 45.8626 44.452 45.7689 44.5082 45.6939C44.677 45.3751 44.8645 45.0564 45.0332 44.7376C43.477 42.1876 41.977 39.9189 40.627 38.0064ZM46.7582 29.0814C46.552 29.3439 46.3645 29.6064 46.177 29.8689C47.5457 31.5751 48.9332 33.5064 50.3957 35.6814C50.5832 35.3814 50.7707 35.1001 50.9582 34.8189C51.0332 34.7064 51.0895 34.6126 51.1645 34.5189C51.277 34.3314 51.4082 34.1626 51.5207 33.9939C50.0957 31.8939 48.7082 30.0001 47.3395 28.3126C47.152 28.5564 46.9457 28.8189 46.7582 29.0814Z" fill="white"/>
<path opacity="0.07" d="M40.6261 38.0061L40.0636 38.8499C41.3948 40.7624 42.8948 43.0499 44.5073 45.6936C44.6761 45.3749 44.8636 45.0561 45.0323 44.7374C43.4761 42.1874 41.9761 39.9186 40.6261 38.0061ZM46.176 29.8686C47.5448 31.5749 48.9323 33.5061 50.3948 35.6811C50.5823 35.3811 50.7698 35.0999 50.9573 34.8186C49.5136 32.6811 48.1073 30.7686 46.7573 29.0811C46.5511 29.3436 46.3635 29.6061 46.176 29.8686Z" fill="white"/>
<defs>
<linearGradient id="paint0_linear_9_721" x1="79.3268" y1="46.4062" x2="25.3812" y2="46.4062" gradientUnits="userSpaceOnUse">
<stop stop-color="white"/>
<stop offset="0.995" stop-color="white"/>
</linearGradient>
<linearGradient id="paint1_linear_9_721" x1="14.3168" y1="61.6312" x2="14.3168" y2="24.3974" gradientUnits="userSpaceOnUse">
<stop stop-color="white"/>
<stop offset="0.995" stop-color="white"/>
</linearGradient>
</defs>
</svg>
