<svg width="90" height="90" viewBox="0 0 90 90" fill="none" xmlns="http://www.w3.org/2000/svg">
<path fill-rule="evenodd" clip-rule="evenodd" d="M53.9475 46.2506C53.4303 44.7882 52.4725 43.522 51.2059 42.6265C49.9393 41.7309 48.4262 41.25 46.875 41.25V39.375H43.125V41.25C41.1359 41.25 39.2282 42.0402 37.8217 43.4467C36.4152 44.8532 35.625 46.7609 35.625 48.75C35.625 50.7391 36.4152 52.6468 37.8217 54.0533C39.2282 55.4598 41.1359 56.25 43.125 56.25V63.75C41.4938 63.75 40.1044 62.7094 39.5869 61.2506C39.5101 61.012 39.3862 60.7911 39.2226 60.6012C39.059 60.4112 38.859 60.256 38.6343 60.1447C38.4097 60.0334 38.165 59.9683 37.9147 59.9532C37.6645 59.9382 37.4137 59.9734 37.1773 60.0569C36.941 60.1405 36.7237 60.2705 36.5385 60.4395C36.3532 60.6084 36.2038 60.8128 36.0989 61.0405C35.994 61.2682 35.9359 61.5147 35.9279 61.7652C35.9199 62.0158 35.9623 62.2655 36.0525 62.4994C36.5697 63.9618 37.5275 65.228 38.7941 66.1235C40.0607 67.0191 41.5738 67.5 43.125 67.5V69.375H46.875V67.5C48.8641 67.5 50.7718 66.7098 52.1783 65.3033C53.5848 63.8968 54.375 61.9891 54.375 60C54.375 58.0109 53.5848 56.1032 52.1783 54.6967C50.7718 53.2902 48.8641 52.5 46.875 52.5V45C47.6505 44.9998 48.407 45.2401 49.0403 45.6877C49.6737 46.1353 50.1526 46.7682 50.4112 47.4994C50.5768 47.9683 50.9219 48.3523 51.3706 48.5668C51.5928 48.673 51.8337 48.7344 52.0796 48.7475C52.3255 48.7606 52.5716 48.7251 52.8038 48.6431C53.0359 48.5611 53.2497 48.4342 53.4329 48.2696C53.616 48.105 53.7649 47.9059 53.8711 47.6838C53.9773 47.4616 54.0387 47.2207 54.0518 46.9748C54.065 46.7289 54.0295 46.4828 53.9475 46.2506ZM43.125 45C42.1304 45 41.1766 45.3951 40.4734 46.0984C39.7701 46.8016 39.375 47.7554 39.375 48.75C39.375 49.7446 39.7701 50.6984 40.4734 51.4016C41.1766 52.1049 42.1304 52.5 43.125 52.5V45ZM46.875 63.75C47.8696 63.75 48.8234 63.3549 49.5266 62.6517C50.2299 61.9484 50.625 60.9946 50.625 60C50.625 59.0054 50.2299 58.0516 49.5266 57.3484C48.8234 56.6451 47.8696 56.25 46.875 56.25V63.75Z" fill="white"/>
<path fill-rule="evenodd" clip-rule="evenodd" d="M24.6619 16.1644C29.2631 13.9125 36.8119 11.25 45.0731 11.25C53.1619 11.25 60.5119 13.8019 65.0888 16.0237L65.3475 16.1494C66.7275 16.8319 67.8413 17.4769 68.625 18L61.6988 28.125C77.6663 44.4487 90 78.7444 45.0731 78.7444C0.146274 78.7444 12.1481 45.0713 28.2544 28.125L21.3731 18C21.9038 17.6531 22.5769 17.25 23.3794 16.8225C23.7769 16.6088 24.2044 16.3875 24.6619 16.1644ZM57.2475 27.99L62.7919 19.8844C57.6356 20.2556 51.5006 21.4669 45.5944 23.1769C41.3756 24.3956 36.6882 24.21 32.3475 23.4094C31.2537 23.2066 30.1674 22.9652 29.0906 22.6856L32.6906 27.9862C40.4063 30.7331 49.53 30.7331 57.2475 27.99ZM30.525 31.1812C39.5532 34.6687 50.4038 34.6688 59.4319 31.1775C63.2004 35.1501 66.3529 39.6645 68.7844 44.5706C71.3194 49.7419 72.6994 54.9113 72.4744 59.3663C72.2569 63.6656 70.5657 67.3387 66.7032 70.0687C62.6775 72.9131 55.9069 74.9944 45.0713 74.9944C34.2244 74.9944 27.4219 72.9487 23.3588 70.1362C19.4681 67.44 17.76 63.8175 17.5182 59.5763C17.265 55.17 18.615 50.0269 21.1406 44.82C23.55 39.855 26.9119 35.0756 30.525 31.1812ZM28.3688 18.5925C29.8688 19.0388 31.4363 19.4269 33.0263 19.7212C37.0575 20.4637 41.1 20.5725 44.55 19.5731C48.5704 18.4019 52.6595 17.4808 56.7938 16.815C53.3438 15.7763 49.3088 15 45.0713 15C38.6119 15 32.5875 16.8019 28.3688 18.5925Z" fill="white"/>
</svg>
